<svg width="512" height="512" viewBox="0 0 512 512" fill="none" xmlns="http://www.w3.org/2000/svg" xmlns:xlink="http://www.w3.org/1999/xlink" class=""><rect id="«r9»" width="512" height="512" x="0" y="0" rx="70" fill="#8A8A8A" stroke="#FFFFFF" stroke-width="0" stroke-opacity="100%" paint-order="stroke"></rect><clipPath id="clip"><use xlink:href="#«r9»"></use></clipPath><defs><linearGradient id="«ra»" gradientUnits="userSpaceOnUse" gradientTransform="rotate(0)" style="transform-origin: center center;"><stop stop-color="#8A8A8A"></stop><stop offset="1" stop-color="#7e0000"></stop></linearGradient><radialGradient id="«rb»" cx="0" cy="0" r="1" gradientUnits="userSpaceOnUse" gradientTransform="translate(256) rotate(90) scale(512)"><stop stop-color="white"></stop><stop offset="1" stop-color="white" stop-opacity="0"></stop></radialGradient></defs><svg xmlns="http://www.w3.org/2000/svg" fill="none" viewBox="0 0 16 16" width="352" height="352" x="80" y="80" style="color: rgb(255, 255, 255);" alignment-baseline="middle"><path fill="currentColor" d="M13.967 1H2.033A1.022 1.022 0 0 0 1 2.01v11.982A1.022 1.022 0 0 0 2.033 15h11.934A1.024 1.024 0 0 0 15 13.989V2.006A1.025 1.025 0 0 0 13.967 1ZM5.151 12.934H3.072V6.248h2.079v6.686ZM4.118 5.337a1.205 1.205 0 1 1-.002-2.41 1.205 1.205 0 0 1 .002 2.41Zm8.816 7.597h-2.078V9.681c0-.774-.014-1.772-1.08-1.772S8.53 8.754 8.53 9.631v3.303H6.454V6.248h1.992v.918h.028c.278-.526.955-1.08 1.966-1.08 2.104-.005 2.494 1.38 2.494 3.176v3.672Z"></path></svg></svg>