<svg width="512" height="512" viewBox="0 0 512 512" fill="none" xmlns="http://www.w3.org/2000/svg" xmlns:xlink="http://www.w3.org/1999/xlink" class=""><rect id="«r9»" width="512" height="512" x="0" y="0" rx="70" fill="#8A8A8A" stroke="#FFFFFF" stroke-width="0" stroke-opacity="100%" paint-order="stroke"></rect><clipPath id="clip"><use xlink:href="#«r9»"></use></clipPath><defs><linearGradient id="«ra»" gradientUnits="userSpaceOnUse" gradientTransform="rotate(0)" style="transform-origin: center center;"><stop stop-color="#8A8A8A"></stop><stop offset="1" stop-color="#7e0000"></stop></linearGradient><radialGradient id="«rb»" cx="0" cy="0" r="1" gradientUnits="userSpaceOnUse" gradientTransform="translate(256) rotate(90) scale(512)"><stop stop-color="white"></stop><stop offset="1" stop-color="white" stop-opacity="0"></stop></radialGradient></defs><svg xmlns="http://www.w3.org/2000/svg" fill="none" viewBox="0 0 16 16" width="352" height="352" x="80" y="80" style="color: rgb(255, 255, 255);" alignment-baseline="middle"><path fill="currentColor" fill-rule="evenodd" d="M4.502 10.037v1.46L1 7.996l.734-.728 2.768 2.77Zm1.461 1.46h-1.46L8.004 15l.73-.73-2.772-2.772ZM14.27 8.73 15 8 8.002 1l-.73.73 2.765 2.77H8.365l-1.93-1.93-.73.73 1.201 1.202H6.07v5.431h5.43v-.84l1.203 1.203.73-.73-1.932-1.933V5.961l2.77 2.768ZM4.868 4.134l-.73.73.783.784.73-.73-.783-.784Zm6.215 6.215-.728.73.784.783.73-.73-.786-.783ZM3.3 5.701l-.73.73 1.931 1.933V6.902l-1.2-1.2Zm5.797 5.797H7.636l1.932 1.932.73-.731-1.2-1.201Z" clip-rule="evenodd"></path></svg></svg>